<?xml version="1.0" standalone="no"?>
<svg xmlns:xlink="http://www.w3.org/1999/xlink" id="wave" style="transform:rotate(0deg); transition: 0.3s" viewBox="0 0 1440 180" version="1.1" xmlns="http://www.w3.org/2000/svg"><defs><linearGradient id="sw-gradient-0" x1="0" x2="0" y1="1" y2="0"><stop stop-color="rgba(255, 255, 255, 1)" offset="0%"/><stop stop-color="rgba(255, 255, 255, 1)" offset="100%"/></linearGradient></defs><path style="transform:translate(0, 0px); opacity:1" fill="url(#sw-gradient-0)" d="M0,90L30,99C60,108,120,126,180,126C240,126,300,108,360,111C420,114,480,138,540,135C600,132,660,102,720,90C780,78,840,84,900,96C960,108,1020,126,1080,114C1140,102,1200,60,1260,39C1320,18,1380,18,1440,24C1500,30,1560,42,1620,42C1680,42,1740,30,1800,36C1860,42,1920,66,1980,87C2040,108,2100,126,2160,117C2220,108,2280,72,2340,60C2400,48,2460,60,2520,54C2580,48,2640,24,2700,18C2760,12,2820,24,2880,33C2940,42,3000,48,3060,63C3120,78,3180,102,3240,99C3300,96,3360,66,3420,48C3480,30,3540,24,3600,42C3660,60,3720,102,3780,102C3840,102,3900,60,3960,39C4020,18,4080,18,4140,30C4200,42,4260,66,4290,78L4320,90L4320,180L4290,180C4260,180,4200,180,4140,180C4080,180,4020,180,3960,180C3900,180,3840,180,3780,180C3720,180,3660,180,3600,180C3540,180,3480,180,3420,180C3360,180,3300,180,3240,180C3180,180,3120,180,3060,180C3000,180,2940,180,2880,180C2820,180,2760,180,2700,180C2640,180,2580,180,2520,180C2460,180,2400,180,2340,180C2280,180,2220,180,2160,180C2100,180,2040,180,1980,180C1920,180,1860,180,1800,180C1740,180,1680,180,1620,180C1560,180,1500,180,1440,180C1380,180,1320,180,1260,180C1200,180,1140,180,1080,180C1020,180,960,180,900,180C840,180,780,180,720,180C660,180,600,180,540,180C480,180,420,180,360,180C300,180,240,180,180,180C120,180,60,180,30,180L0,180Z"/><defs><linearGradient id="sw-gradient-1" x1="0" x2="0" y1="1" y2="0"><stop stop-color="rgba(255, 255, 255, 1)" offset="0%"/><stop stop-color="rgba(255, 255, 255, 1)" offset="100%"/></linearGradient></defs><path style="transform:translate(0, 50px); opacity:0.9" fill="url(#sw-gradient-1)" d="M0,72L30,75C60,78,120,84,180,72C240,60,300,30,360,15C420,0,480,0,540,15C600,30,660,60,720,78C780,96,840,102,900,96C960,90,1020,72,1080,60C1140,48,1200,42,1260,51C1320,60,1380,84,1440,87C1500,90,1560,72,1620,78C1680,84,1740,114,1800,105C1860,96,1920,48,1980,36C2040,24,2100,48,2160,75C2220,102,2280,132,2340,129C2400,126,2460,90,2520,87C2580,84,2640,114,2700,108C2760,102,2820,60,2880,36C2940,12,3000,6,3060,9C3120,12,3180,24,3240,36C3300,48,3360,60,3420,66C3480,72,3540,72,3600,84C3660,96,3720,120,3780,111C3840,102,3900,60,3960,60C4020,60,4080,102,4140,123C4200,144,4260,144,4290,144L4320,144L4320,180L4290,180C4260,180,4200,180,4140,180C4080,180,4020,180,3960,180C3900,180,3840,180,3780,180C3720,180,3660,180,3600,180C3540,180,3480,180,3420,180C3360,180,3300,180,3240,180C3180,180,3120,180,3060,180C3000,180,2940,180,2880,180C2820,180,2760,180,2700,180C2640,180,2580,180,2520,180C2460,180,2400,180,2340,180C2280,180,2220,180,2160,180C2100,180,2040,180,1980,180C1920,180,1860,180,1800,180C1740,180,1680,180,1620,180C1560,180,1500,180,1440,180C1380,180,1320,180,1260,180C1200,180,1140,180,1080,180C1020,180,960,180,900,180C840,180,780,180,720,180C660,180,600,180,540,180C480,180,420,180,360,180C300,180,240,180,180,180C120,180,60,180,30,180L0,180Z"/></svg>