<?xml version="1.0" standalone="no"?>
<svg xmlns:xlink="http://www.w3.org/1999/xlink" id="wave" style="transform:rotate(0deg); transition: 0.3s" viewBox="0 0 1440 180" version="1.1" xmlns="http://www.w3.org/2000/svg"><defs><linearGradient id="sw-gradient-0" x1="0" x2="0" y1="1" y2="0"><stop stop-color="rgba(186, 36, 255, 1)" offset="0%"/><stop stop-color="rgba(33, 37, 41, 1)" offset="100%"/></linearGradient></defs><path style="transform:translate(0, 0px); opacity:1" fill="url(#sw-gradient-0)" d="M0,72L26.7,60C53.3,48,107,24,160,33C213.3,42,267,84,320,87C373.3,90,427,54,480,48C533.3,42,587,66,640,72C693.3,78,747,66,800,51C853.3,36,907,18,960,12C1013.3,6,1067,12,1120,33C1173.3,54,1227,90,1280,90C1333.3,90,1387,54,1440,51C1493.3,48,1547,78,1600,99C1653.3,120,1707,132,1760,135C1813.3,138,1867,132,1920,111C1973.3,90,2027,54,2080,36C2133.3,18,2187,18,2240,39C2293.3,60,2347,102,2400,102C2453.3,102,2507,60,2560,51C2613.3,42,2667,66,2720,69C2773.3,72,2827,54,2880,39C2933.3,24,2987,12,3040,6C3093.3,0,3147,0,3200,0C3253.3,0,3307,0,3360,12C3413.3,24,3467,48,3520,75C3573.3,102,3627,132,3680,132C3733.3,132,3787,102,3813,87L3840,72L3840,180L3813.3,180C3786.7,180,3733,180,3680,180C3626.7,180,3573,180,3520,180C3466.7,180,3413,180,3360,180C3306.7,180,3253,180,3200,180C3146.7,180,3093,180,3040,180C2986.7,180,2933,180,2880,180C2826.7,180,2773,180,2720,180C2666.7,180,2613,180,2560,180C2506.7,180,2453,180,2400,180C2346.7,180,2293,180,2240,180C2186.7,180,2133,180,2080,180C2026.7,180,1973,180,1920,180C1866.7,180,1813,180,1760,180C1706.7,180,1653,180,1600,180C1546.7,180,1493,180,1440,180C1386.7,180,1333,180,1280,180C1226.7,180,1173,180,1120,180C1066.7,180,1013,180,960,180C906.7,180,853,180,800,180C746.7,180,693,180,640,180C586.7,180,533,180,480,180C426.7,180,373,180,320,180C266.7,180,213,180,160,180C106.7,180,53,180,27,180L0,180Z"/></svg>